<svg width="258" height="50" viewBox="0 0 258 50" fill="none" xmlns="http://www.w3.org/2000/svg">
<path d="M31.25 37.5C31.25 39.7 30.8 41.85 29.9 43.825H26.4C29.9 37.875 27.9 30.225 21.95 26.725C20.0322 25.5986 17.8491 25.0032 15.625 25C8.725 25 3.125 19.4 3.125 12.5C3.125 5.6 8.725 0 15.625 0C22.525 0 28.125 5.6 28.125 12.5H25C25 7.325 20.8 3.125 15.625 3.125C10.45 3.125 6.25 7.325 6.25 12.5C6.25 17.675 10.45 21.875 15.625 21.875C24.25 21.875 31.25 28.9 31.25 37.5ZM1.35 43.825C0.45 41.85 0 39.675 0 37.5H3.125C3.125 39.825 3.75 41.975 4.85 43.825H1.35ZM31.25 46.875V50H0V46.875H9.375V34.375H6.25V31.25H25V34.375H21.875V46.875H31.25ZM18.75 34.375H12.5V46.875H18.75V34.375ZM21.725 12.675C21.6794 14.2761 21.0213 15.7986 19.8864 16.9289C18.7515 18.0591 17.2262 18.711 15.625 18.75C14.8056 18.7296 13.9983 18.5477 13.2492 18.2149C12.5002 17.882 11.8242 17.4047 11.2599 16.8102C10.6956 16.2157 10.2541 15.5158 9.96068 14.7504C9.66727 13.9851 9.52772 13.1694 9.55 12.35C9.625 9.025 12.3 6.325 15.625 6.25C17.285 6.29582 18.8592 6.99779 20.0025 8.2021C21.1459 9.40641 21.7653 11.0149 21.725 12.675ZM18.75 12.5C18.75 11.6712 18.4208 10.8763 17.8347 10.2903C17.2487 9.70424 16.4538 9.375 15.625 9.375C14.7962 9.375 14.0013 9.70424 13.4153 10.2903C12.8292 10.8763 12.5 11.6712 12.5 12.5C12.5 13.3288 12.8292 14.1237 13.4153 14.7097C14.0013 15.2958 14.7962 15.625 15.625 15.625C16.4538 15.625 17.2487 15.2958 17.8347 14.7097C18.4208 14.1237 18.75 13.3288 18.75 12.5Z" fill="black"/>
<path d="M47.7949 30.6543C49.0319 31.1995 50.0614 31.582 50.8833 31.8018C51.7134 32.0133 52.5068 32.1191 53.2637 32.1191C54.0286 32.1191 54.6309 31.9604 55.0703 31.6431C55.5098 31.3257 55.7295 30.8537 55.7295 30.2271C55.7295 29.8771 55.6359 29.5719 55.4487 29.3115C55.2616 29.043 54.9727 28.7785 54.582 28.5181C54.1995 28.2495 53.4427 27.8507 52.3115 27.3218C51.1803 26.7847 50.3462 26.2842 49.8091 25.8203C48.6128 24.7868 48.0146 23.4928 48.0146 21.9385C48.0146 20.3841 48.5477 19.1553 49.6138 18.252C50.688 17.3486 52.1691 16.897 54.0571 16.897C55.644 16.897 57.41 17.3161 59.355 18.1543L58.1343 21.0962C57.2147 20.7218 56.4375 20.4533 55.8027 20.2905C55.168 20.1278 54.521 20.0464 53.8618 20.0464C53.2108 20.0464 52.6899 20.2132 52.2993 20.5469C51.9087 20.8724 51.7134 21.3078 51.7134 21.853C51.7134 22.1867 51.7866 22.4797 51.9331 22.7319C52.0877 22.9761 52.3319 23.2161 52.6655 23.4521C53.0073 23.68 53.813 24.0951 55.0825 24.6973C56.7427 25.4867 57.882 26.2882 58.5005 27.1021C59.1271 27.8833 59.4404 28.8639 59.4404 30.0439C59.4404 31.639 58.8586 32.9126 57.6948 33.8647C56.5311 34.7843 54.9564 35.2441 52.9707 35.2441C50.985 35.2441 49.2598 34.8861 47.7949 34.1699V30.6543ZM77.6777 35H73.6006L72.2944 30.752H65.8003L64.5063 35H60.4292L66.728 17.0801H71.3545L77.6777 35ZM71.4033 27.5781L69.377 21.0474C69.2223 20.5103 69.1165 20.1115 69.0596 19.8511C68.791 20.8846 68.022 23.4603 66.7524 27.5781H71.4033ZM90.1655 20.2539H83.6592V24.856H89.7017V27.9443H83.6592V35H79.936V17.1533H90.1655V20.2539ZM103.935 20.2539H97.4409V24.1724H103.471V27.2729H97.4409V31.875H103.935V35H93.6567V17.1533H103.935V20.2539ZM122.294 35H118.522V27.2974H111.455V35H107.67V17.1533H111.455V24.1479H118.522V17.1533H122.294V35ZM137.089 20.2539H130.595V24.1724H136.625V27.2729H130.595V31.875H137.089V35H126.811V17.1533H137.089V20.2539ZM140.825 17.1533H146.025C148.442 17.1533 150.232 17.5928 151.396 18.4717C152.568 19.3506 153.154 20.6934 153.154 22.5C153.154 23.5498 152.865 24.4857 152.287 25.3076C151.709 26.1214 150.891 26.7603 149.833 27.2241C152.698 31.5047 154.448 34.0967 155.083 35H150.883L146.623 28.1519H144.609V35H140.825V17.1533ZM144.609 20.2539V25.0757H145.83C147.026 25.0757 147.909 24.8763 148.479 24.4775C149.048 24.0788 149.333 23.4562 149.333 22.6099C149.333 21.7635 149.044 21.1613 148.466 20.8032C147.897 20.437 146.993 20.2539 145.756 20.2539H144.609ZM163.823 17.1533H169.023C171.44 17.1533 173.23 17.5928 174.394 18.4717C175.566 19.3506 176.152 20.6934 176.152 22.5C176.152 23.5498 175.863 24.4857 175.285 25.3076C174.707 26.1214 173.889 26.7603 172.832 27.2241C175.696 31.5047 177.446 34.0967 178.081 35H173.881L169.621 28.1519H167.607V35H163.823V17.1533ZM167.607 20.2539V25.0757H168.828C170.024 25.0757 170.907 24.8763 171.477 24.4775C172.046 24.0788 172.331 23.4562 172.331 22.6099C172.331 21.7635 172.042 21.1613 171.464 20.8032C170.895 20.437 169.991 20.2539 168.754 20.2539H167.607ZM190.605 20.2539H184.111V24.1724H190.141V27.2729H184.111V31.875H190.605V35H180.327V17.1533H190.605V20.2539ZM204.57 20.2539H198.063V24.856H204.106V27.9443H198.063V35H194.34V17.1533H204.57V20.2539ZM222.587 17.1533V28.7012C222.587 28.7256 222.587 28.75 222.587 28.7744C222.587 30.7275 221.928 32.2941 220.61 33.4741C219.292 34.6541 217.53 35.2441 215.324 35.2441C215.284 35.2441 215.239 35.2441 215.19 35.2441C212.895 35.2441 211.113 34.6541 209.843 33.4741C208.574 32.2941 207.939 30.6868 207.939 28.6523V17.1533H211.711V28.0786C211.711 29.4621 211.992 30.4753 212.553 31.1182C213.115 31.7529 214.018 32.0703 215.263 32.0703C216.508 32.0703 217.412 31.7489 217.973 31.106C218.535 30.4631 218.815 29.4458 218.815 28.0542V17.1533H222.587ZM240.812 24.978V34.231C238.729 34.9064 236.613 35.2441 234.465 35.2441C231.779 35.2441 229.72 34.4548 228.288 32.876C226.872 31.2891 226.164 29.0348 226.164 26.1133C226.164 23.1917 226.986 20.9253 228.63 19.314C230.282 17.7026 232.569 16.897 235.49 16.897C237.321 16.897 239.087 17.2632 240.788 17.9956L239.531 21.0229C238.212 20.3719 236.857 20.0464 235.466 20.0464C233.83 20.0464 232.52 20.5998 231.535 21.7065C230.55 22.8052 230.058 24.3026 230.058 26.1987C230.058 28.0868 230.453 29.5435 231.242 30.5688C232.04 31.5861 233.195 32.0947 234.709 32.0947C235.474 32.0947 236.276 32.0133 237.114 31.8506V28.1274H233.732V24.978H240.812ZM255.351 20.2539H248.857V24.1724H254.887V27.2729H248.857V31.875H255.351V35H245.073V17.1533H255.351V20.2539Z" fill="black"/>
</svg>
